<?xml version="1.0" encoding="UTF-8" standalone="no"?>
<!DOCTYPE svg PUBLIC "-//W3C//DTD SVG 1.1//EN" "http://www.w3.org/Graphics/SVG/1.1/DTD/svg11.dtd">
<svg width="100%" height="100%" viewBox="0 0 19 17" version="1.1" xmlns="http://www.w3.org/2000/svg" xmlns:xlink="http://www.w3.org/1999/xlink" xml:space="preserve" xmlns:serif="http://www.serif.com/" style="fill-rule:evenodd;clip-rule:evenodd;stroke-linejoin:round;stroke-miterlimit:2;">
    <g transform="matrix(1,0,0,1,-1025.94,-255.052)">
        <path d="M1042.81,255.052L1027.74,255.05C1026.75,255.05 1025.94,255.863 1025.94,256.85L1025.94,266.098C1025.94,267.085 1026.75,267.898 1027.74,267.898L1028.57,267.898C1029.01,267.898 1029.37,268.259 1029.37,268.698L1029.37,270.934C1029.37,271.127 1029.48,271.303 1029.65,271.386C1029.83,271.469 1030.04,271.443 1030.19,271.321L1033.97,268.228C1033.99,268.211 1034.01,268.192 1034.02,268.171C1034.18,267.999 1034.39,267.9 1034.62,267.9L1042.81,267.9C1043.79,267.9 1044.61,267.087 1044.61,266.1C1044.61,266.1 1044.61,256.852 1044.61,256.852C1044.61,255.865 1043.79,255.052 1042.81,255.052L1042.81,255.052ZM1027.74,256.05L1042.81,256.052C1043.25,256.052 1043.61,256.413 1043.61,256.852L1043.61,266.1C1043.61,266.539 1043.25,266.9 1042.81,266.9L1034.62,266.9C1034.12,266.9 1033.64,267.111 1033.3,267.48C1033.3,267.478 1030.37,269.879 1030.37,269.879C1030.37,269.879 1030.37,268.698 1030.37,268.698C1030.37,267.711 1029.56,266.898 1028.57,266.898C1028.57,266.898 1027.74,266.898 1027.74,266.898C1027.3,266.898 1026.94,266.537 1026.94,266.098L1026.94,256.85C1026.94,256.411 1027.3,256.05 1027.74,256.05Z"/>
    </g>
</svg>
