<svg xmlns="http://www.w3.org/2000/svg" width="29.432" height="29.325" viewBox="0 0 29.432 29.325">
    <g id="Groupe_140" data-name="Groupe 140" transform="translate(28.937 28.825) rotate(180)">
        <g id="Groupe_136" data-name="Groupe 136" transform="translate(0 0)">
            <path id="Tracé_274" data-name="Tracé 274" d="M3.974.7V.689A.713.713,0,0,0,3.287,0C2.432,0,1.578,0,.724,0a.717.717,0,0,0-.7.687Q-.027,9.6.027,18.51a.72.72,0,0,0,.687.687Q2,19.2,3.287,19.2a.713.713,0,0,0,.686-.687V.7Z" transform="translate(0 9.124)" />
            <path id="Tracé_275" data-name="Tracé 275" d="M0,27.282c5.442,0,10.884.01,16.326,0a2.758,2.758,0,0,0,2.632-2.23q1-5.867,1.957-11.739A2.783,2.783,0,0,0,18.26,10.2H10.58a.854.854,0,0,1-.378-.123.759.759,0,0,1-.265-.52c0-1.759,0-3.517,0-5.276A4.4,4.4,0,0,0,7.108.261,4.323,4.323,0,0,0,5.618,0,1.076,1.076,0,0,0,4.584,1.035c0,1.314,0,2.629,0,3.943A5.336,5.336,0,0,1,1.5,9.742a5.287,5.287,0,0,1-1.5.421v.116C.033,15.946,0,21.614,0,27.282Z" transform="translate(7.489)" />
        </g>
    </g>
</svg>
