<svg id="Groupe_139" data-name="Groupe 139" xmlns="http://www.w3.org/2000/svg" width="28.433" height="28.325" viewBox="0 0 28.433 28.325">
    <g id="Groupe_136" data-name="Groupe 136" transform="translate(0 0)">
        <path id="Tracé_274" data-name="Tracé 274" d="M107.724,41.47v-.011a.713.713,0,0,0-.686-.687c-.855,0-1.709,0-2.564,0a.717.717,0,0,0-.7.687q-.053,8.91,0,17.821a.72.72,0,0,0,.687.687q1.287.008,2.574,0a.713.713,0,0,0,.686-.687V41.47Z" transform="translate(-103.75 -31.646)" />
        <path id="Tracé_275" data-name="Tracé 275" d="M113.385,51.335c5.442,0,10.884.01,16.326,0a2.758,2.758,0,0,0,2.632-2.23q1-5.867,1.957-11.739a2.783,2.783,0,0,0-2.655-3.11h-7.68a.854.854,0,0,1-.378-.123.759.759,0,0,1-.265-.52c0-1.759,0-3.517,0-5.276a4.4,4.4,0,0,0-2.829-4.023A4.322,4.322,0,0,0,119,24.053a1.076,1.076,0,0,0-1.035,1.035c0,1.314,0,2.629,0,3.943a5.224,5.224,0,0,1-4.581,5.184v.116C113.418,40,113.386,45.667,113.385,51.335Z" transform="translate(-105.896 -24.053)"/>
    </g>
    <style type="text/css">
        path {fill:#FC5D41;}
    
    </style>
</svg>
