<?xml version="1.0" encoding="UTF-8" standalone="no"?>
<!DOCTYPE svg PUBLIC "-//W3C//DTD SVG 1.1//EN" "http://www.w3.org/Graphics/SVG/1.1/DTD/svg11.dtd">
<svg width="100%" height="100%" viewBox="0 0 26 24" version="1.1" xmlns="http://www.w3.org/2000/svg" xmlns:xlink="http://www.w3.org/1999/xlink" xml:space="preserve" xmlns:serif="http://www.serif.com/" style="fill-rule:evenodd;clip-rule:evenodd;stroke-linejoin:round;stroke-miterlimit:2;">
    <g id="Groupe_41" transform="matrix(1,0,0,1,1.5,1.5)">
        <g transform="matrix(1,0,0,1,0,9.503)">
            <path d="M-0,2L21.991,2C22.819,2 23.491,1.328 23.491,0.5C23.491,-0.328 22.819,-1 21.991,-1L0,-1C-0.828,-1 -1.5,-0.328 -1.5,0.5C-1.5,1.328 -0.828,2 -0,2Z" />
        </g>
        <g transform="matrix(1,0,0,1,10.836,19.506)">
            <path d="M0,2L11.4,2C12.228,2 12.9,1.328 12.9,0.5C12.9,-0.328 12.228,-1 11.4,-1L0,-1C-0.828,-1 -1.5,-0.328 -1.5,0.5C-1.5,1.328 -0.828,2 0,2Z" />
        </g>
        <g transform="matrix(1,0,0,1,0,-0.5)">
            <path d="M-0,2L21.991,2C22.819,2 23.491,1.328 23.491,0.5C23.491,-0.328 22.819,-1 21.991,-1L0,-1C-0.828,-1 -1.5,-0.328 -1.5,0.5C-1.5,1.328 -0.828,2 -0,2Z" />
        </g>
    </g>
</svg>
