<svg id="Groupe_3" data-name="Groupe 3" xmlns="http://www.w3.org/2000/svg" width="174.276" height="28.651" viewBox="0 0 174.276 28.651">
  <path id="Tracé_9" data-name="Tracé 9" d="M787.553,654.063a10.519,10.519,0,0,1,3.325-7.79,10.943,10.943,0,0,1,7.957-3.255A11.233,11.233,0,0,1,810,654.188a10.56,10.56,0,0,1-3.311,7.859,11.349,11.349,0,0,1-15.5.362A10.552,10.552,0,0,1,787.553,654.063Zm3.269.042a7.763,7.763,0,0,0,2.393,5.857,7.925,7.925,0,0,0,11.2-.042,8.335,8.335,0,0,0,.028-11.518,8.009,8.009,0,0,0-11.309,0A7.748,7.748,0,0,0,790.822,654.1Z" transform="translate(-787.553 -641.808)" fill="#010540"/>
  <path id="Tracé_10" data-name="Tracé 10" d="M947.17,644.975v12.937a7.119,7.119,0,0,0,.9,4.048,4.837,4.837,0,0,0,7.609,0,7,7,0,0,0,.9-4.048V644.975h3.241V658.8a7.737,7.737,0,0,1-2.114,5.592,8.179,8.179,0,0,1-11.671,0,7.737,7.737,0,0,1-2.114-5.592V644.975Z" transform="translate(-911.704 -643.361)" fill="#010540"/>
  <path id="Tracé_11" data-name="Tracé 11" d="M1063.189,656.038l-2.393,5.216h-3.492l10.628-22.827,10.252,22.827h-3.547l-2.253-5.216-1.322-3.046-3.186-7.3-3.339,7.3" transform="translate(-1001.716 -638.163)" fill="#010540"/>
  <path id="Tracé_12" data-name="Tracé 12" d="M1202.544,644.975v18.432h6.315v3.046H1199.3V644.975Z" transform="translate(-1114.451 -643.361)" fill="#010540"/>
  <path id="Tracé_13" data-name="Tracé 13" d="M1278.792,654.063a10.518,10.518,0,0,1,3.325-7.79,10.943,10.943,0,0,1,7.957-3.255,11.233,11.233,0,0,1,11.17,11.17,10.561,10.561,0,0,1-3.311,7.859,11.349,11.349,0,0,1-15.5.362A10.553,10.553,0,0,1,1278.792,654.063Zm3.269.042a7.762,7.762,0,0,0,2.393,5.857,7.925,7.925,0,0,0,11.2-.042,8.336,8.336,0,0,0,.028-11.518,8.009,8.009,0,0,0-11.309,0A7.748,7.748,0,0,0,1282.061,654.1Z" transform="translate(-1177.559 -641.808)" fill="#010540"/>
  <path id="Tracé_14" data-name="Tracé 14" d="M1421.522,660.236l4.521-23.091,7.372,16.693,7.637-16.693,4.062,23.091h-3.325l-2.073-12.965-6.357,13.952-6.176-13.966-2.309,12.978Z" transform="translate(-1290.876 -637.145)" fill="#010540"/>
  <path id="Tracé_15" data-name="Tracé 15" d="M1587.581,648.021h-8.611v5.161h8.36v3.046h-8.36v7.178h8.611v3.046h-11.852V644.975h11.852Z" transform="translate(-1413.305 -643.361)" fill="#010540"/>
  <rect id="Rectangle_5" data-name="Rectangle 5" width="2.679" height="7.625" transform="matrix(0.707, -0.707, 0.707, 0.707, 19.118, 23.26)" fill="#010540"/>
  <circle id="Ellipse_1" data-name="Ellipse 1" cx="2.473" cy="2.473" r="2.473" transform="translate(109.931 10.068)" fill="#fc5d41"/>
</svg>
