<svg id="noun_profile_2072928" xmlns="http://www.w3.org/2000/svg" width="30.336" height="30.336" viewBox="0 0 30.336 30.336">
  <path id="Tracé_29" data-name="Tracé 29" d="M15.195,0A15.168,15.168,0,1,1,0,15.195,15.173,15.173,0,0,1,15.195,0Zm0,7.437a5.726,5.726,0,0,1,2.836,10.7,9.352,9.352,0,0,1,6.206,6.848,13.173,13.173,0,0,0,4.334-9.791A13.376,13.376,0,1,0,6.1,24.985a9.352,9.352,0,0,1,6.206-6.848,5.713,5.713,0,0,1-2.889-4.976A5.777,5.777,0,0,1,15.195,7.437ZM22.631,26.27v-.054a7.479,7.479,0,0,0-14.874,0v.054a13.03,13.03,0,0,0,7.437,2.3A13.288,13.288,0,0,0,22.631,26.27ZM15.195,9.256A3.932,3.932,0,1,0,19.1,13.162,3.939,3.939,0,0,0,15.195,9.256Z" />

  <style type="text/css">
    path {fill:#fff;}
    
  </style>
</svg>
